<svg width="238" height="34" viewBox="0 0 238 34" fill="none" xmlns="http://www.w3.org/2000/svg">
<g clip-path="url(#clip0_1131_53)">
<path d="M22.7863 11.1083C22.7885 11.131 22.7908 11.1537 22.7935 11.1763C22.7882 11.1504 22.7825 11.1242 22.7764 11.0977C22.7796 11.1013 22.7829 11.1049 22.7863 11.1083Z" fill="url(#paint0_linear_1131_53)"/>
<path d="M22.7974 11.1801H22.7935V11.178L22.7974 11.1801Z" fill="url(#paint1_linear_1131_53)"/>
<path d="M22.7863 11.1083C22.7885 11.131 22.7908 11.1537 22.7935 11.1763C22.7882 11.1504 22.7825 11.1242 22.7764 11.0977C22.7796 11.1013 22.7829 11.1049 22.7863 11.1083Z" fill="url(#paint2_linear_1131_53)"/>
<path d="M22.7974 11.1801H22.7935V11.178L22.7974 11.1801Z" fill="url(#paint3_linear_1131_53)"/>
<path d="M23.4873 14.4668C23.4873 14.4668 25.308 14.0721 25.8364 13.2256C26.3649 12.3792 26.4315 11.0552 26.1733 10.0407C25.9151 9.02613 25.6244 7.51777 27.1835 5.95783C28.7425 4.39788 32.5202 3.20938 33.2107 3.36767C33.9012 3.52597 32.2336 4.26599 31.6523 5.48308C31.0711 6.70016 30.9649 8.38968 31.2295 9.44698C31.4941 10.5043 31.6891 10.7193 30.6484 10.9541C29.2742 11.2672 28.2444 12.0865 28.2444 13.1965C28.2444 14.3065 28.4381 15.0148 27.8193 14.9738C26.3666 14.8663 26.0975 16.0827 26.0975 16.0827C26.0975 16.0827 25.7586 15.8125 25.3099 15.4593C24.8612 15.1061 23.4873 14.4668 23.4873 14.4668Z" fill="url(#paint4_linear_1131_53)"/>
<path fill-rule="evenodd" clip-rule="evenodd" d="M17.2462 33.949C21.2784 34.3402 28.0891 31.7561 29.0565 22.839C29.3967 19.687 26.8571 16.5112 25.4258 15.5263C24.213 14.6932 22.5331 14.0699 22.5331 14.0699C22.5498 14.0345 22.5645 13.9981 22.5772 13.961L22.8012 13.6937C23.0433 13.4012 23.5268 13.1457 23.941 12.9269C24.3256 12.7237 24.6504 12.5521 24.667 12.4116C24.6892 12.2239 24.4652 12.1223 24.1056 11.9591C23.906 11.8685 23.6647 11.759 23.4005 11.6053C23.1745 11.4678 22.968 11.3007 22.7863 11.1083C22.7373 10.593 22.8227 10.0738 23.034 9.60135C23.1647 9.32588 23.3013 9.09949 23.4143 8.9122C23.6189 8.57318 23.7462 8.36223 23.6214 8.22011C23.528 8.11367 23.1625 8.15606 22.7303 8.20619C22.2665 8.25997 21.7258 8.32268 21.3616 8.22011L20.6569 8.02384C19.8907 7.47124 18.945 7.10116 17.8499 7.10116C17.1961 7.10116 16.6262 7.19576 16.1341 7.34548C15.8684 7.15492 15.5613 6.88135 15.2252 6.48799C14.7859 5.97376 14.538 5.35979 14.3659 4.93342C14.2403 4.62252 14.1551 4.41138 14.0652 4.41138C13.9984 4.41138 13.9275 4.52408 13.8524 4.64333C13.8332 4.67379 13.8138 4.70468 13.7941 4.73423C13.0867 5.75911 12.8659 7.04341 13.1903 8.24584C13.2834 8.60713 13.4028 8.96114 13.5474 9.30504C13.5876 9.6611 13.7048 11.2085 12.8568 12.1111C12.1122 12.9034 11.0359 13.0826 10.4072 13.1872C10.2227 13.2179 10.0767 13.2422 9.98892 13.2737C9.60212 13.4125 10.2364 15.8779 11.8742 16.9039C16.0314 19.5069 19.7976 16.9662 19.7976 16.9662C20.1756 17.8779 20.4235 18.8383 20.5338 19.8192C20.6994 21.393 20.3414 25.1248 18.4095 27.7381C16.6651 30.0925 14.5118 31.3069 11.1995 31.4446C11.1995 31.4446 15.6171 33.7918 17.2462 33.949ZM22.7863 11.1083C22.7885 11.1309 22.7908 11.1538 22.7935 11.1765C22.7883 11.1505 22.7826 11.1243 22.7764 11.0979C22.7797 11.1014 22.7829 11.1049 22.7863 11.1083ZM22.7935 11.1795V11.1778L22.7968 11.1795H22.7935ZM17.031 12.8952C17.6767 12.4971 18.102 11.7757 18.102 11.7757L17.794 11.5033C17.794 11.5033 16.5886 10.2609 15.6417 10.839C14.9907 11.233 15.0865 12.5638 15.4448 12.9556C15.7129 13.2491 16.3852 13.2933 17.031 12.8952Z" fill="url(#paint5_linear_1131_53)"/>
<path d="M31.8706 8.78025C31.8307 8.73615 31.8083 8.71573 31.8083 8.71573C31.8083 8.71573 31.8083 9.34973 32.0234 9.77289C32.2385 10.1961 32.4819 11.2176 32.0234 11.4285C31.5649 11.6395 30.5394 11.9593 30.505 12.1747C30.4964 12.2209 30.4986 12.0563 30.505 12.108C30.9643 13.6099 31.1976 15.1718 31.1971 16.7423C31.1942 24.7285 24.7208 31.2003 16.7379 31.1982C8.75497 31.1961 2.28504 24.7207 2.28637 16.7346C2.28769 8.74852 8.75978 2.27535 16.7427 2.27588C20.3294 2.27588 23.7514 3.73347 26.2781 5.89637C26.3513 5.7295 26.6741 5.2504 27.2294 4.78641C27.7846 4.32241 28.1118 4.24823 28.2506 4.20508C25.2827 1.66652 21.2107 0 16.9998 0C9.34187 0 2.63077 5.12609 0.613297 12.5165C-1.40417 19.9069 1.7709 27.7339 8.36589 31.6279C14.9609 35.5218 23.3449 34.5197 28.8372 29.1809C34.3294 23.8422 35.5718 15.4871 31.8706 8.78025Z" fill="url(#paint6_linear_1131_53)"/>
<path opacity="0.2" d="M31.3991 10.1089C31.3991 10.1089 30.1085 6.21044 32.7311 4.18528C32.7311 4.18528 33.2371 3.75204 33.3418 3.58967C33.4466 3.42729 33.2679 3.38428 33.2679 3.38428C33.2679 3.38428 26.3809 4.86038 27.2356 8.50919C28.0902 12.158 29.7662 11.2463 29.7662 11.2463C29.7662 11.2463 30.0726 11.0773 30.8205 10.9122C31.5683 10.7471 31.4498 10.4274 31.3991 10.1089Z" fill="#231F20"/>
<path opacity="0.2" d="M14.1172 30.9576C14.1172 30.9576 22.7358 33.1597 28.7581 24.7751C28.7581 24.7751 21.6538 30.658 14.1172 30.9576Z" fill="#231F20"/>
</g>
<path d="M237.169 15.3953L234.38 15.6996C234.301 15.4179 234.163 15.1531 233.966 14.9051C233.774 14.6572 233.515 14.4572 233.188 14.3051C232.862 14.1529 232.461 14.0769 231.988 14.0769C231.351 14.0769 230.816 14.2149 230.382 14.491C229.954 14.7671 229.743 15.1249 229.748 15.5644C229.743 15.9419 229.881 16.249 230.163 16.4856C230.45 16.7223 230.923 16.9167 231.582 17.0688L233.797 17.5421C235.025 17.8069 235.938 18.2267 236.535 18.8014C237.138 19.3761 237.442 20.1283 237.448 21.058C237.442 21.875 237.203 22.5962 236.73 23.2216C236.262 23.8414 235.611 24.326 234.777 24.6753C233.943 25.0247 232.985 25.1993 231.904 25.1993C230.315 25.1993 229.036 24.8669 228.067 24.202C227.097 23.5315 226.52 22.599 226.334 21.4045L229.317 21.1172C229.453 21.7031 229.74 22.1454 230.18 22.4441C230.619 22.7427 231.191 22.892 231.895 22.892C232.622 22.892 233.205 22.7427 233.645 22.4441C234.09 22.1454 234.312 21.7764 234.312 21.3369C234.312 20.965 234.169 20.6579 233.881 20.4157C233.6 20.1734 233.16 19.9874 232.563 19.8578L230.349 19.393C229.103 19.1338 228.182 18.6971 227.585 18.083C226.988 17.4632 226.692 16.68 226.697 15.7334C226.692 14.9333 226.909 14.2403 227.348 13.6543C227.793 13.0627 228.41 12.6063 229.199 12.2851C229.994 11.9583 230.909 11.7949 231.946 11.7949C233.467 11.7949 234.665 12.1189 235.538 12.7669C236.417 13.4148 236.961 14.291 237.169 15.3953Z" fill="#000714"/>
<path d="M215.465 17.3392V24.9458H212.406V11.964H215.33V14.1699H215.482C215.781 13.443 216.257 12.8655 216.911 12.4373C217.57 12.009 218.384 11.7949 219.353 11.7949C220.249 11.7949 221.029 11.9865 221.694 12.3696C222.365 12.7528 222.883 13.3078 223.249 14.0346C223.621 14.7615 223.804 15.6433 223.799 16.68V24.9458H220.739V17.1533C220.739 16.2856 220.514 15.6066 220.063 15.1164C219.618 14.6262 219.001 14.3811 218.212 14.3811C217.677 14.3811 217.201 14.4995 216.784 14.7361C216.372 14.9671 216.048 15.3024 215.812 15.7419C215.581 16.1814 215.465 16.7138 215.465 17.3392Z" fill="#000714"/>
<path d="M203.588 25.1993C202.32 25.1993 201.222 24.9204 200.292 24.3626C199.362 23.8048 198.641 23.0244 198.128 22.0215C197.621 21.0185 197.368 19.8466 197.368 18.5056C197.368 17.1646 197.621 15.9898 198.128 14.9812C198.641 13.9726 199.362 13.1895 200.292 12.6316C201.222 12.0738 202.32 11.7949 203.588 11.7949C204.856 11.7949 205.955 12.0738 206.884 12.6316C207.814 13.1895 208.532 13.9726 209.039 14.9812C209.552 15.9898 209.809 17.1646 209.809 18.5056C209.809 19.8466 209.552 21.0185 209.039 22.0215C208.532 23.0244 207.814 23.8048 206.884 24.3626C205.955 24.9204 204.856 25.1993 203.588 25.1993ZM203.605 22.7483C204.292 22.7483 204.867 22.5596 205.329 22.1821C205.791 21.7989 206.135 21.2862 206.36 20.6439C206.591 20.0015 206.707 19.2859 206.707 18.4971C206.707 17.7027 206.591 16.9843 206.36 16.3419C206.135 15.694 205.791 15.1784 205.329 14.7953C204.867 14.4121 204.292 14.2206 203.605 14.2206C202.901 14.2206 202.315 14.4121 201.847 14.7953C201.385 15.1784 201.039 15.694 200.808 16.3419C200.582 16.9843 200.469 17.7027 200.469 18.4971C200.469 19.2859 200.582 20.0015 200.808 20.6439C201.039 21.2862 201.385 21.7989 201.847 22.1821C202.315 22.5596 202.901 22.7483 203.605 22.7483Z" fill="#000714"/>
<path d="M188.696 30.0844C187.598 30.0844 186.654 29.9351 185.865 29.6365C185.076 29.3435 184.442 28.9491 183.963 28.4532C183.484 27.9574 183.152 27.408 182.966 26.8052L185.721 26.1375C185.845 26.391 186.026 26.6417 186.262 26.8897C186.499 27.1432 186.817 27.3517 187.217 27.5151C187.623 27.6841 188.133 27.7686 188.747 27.7686C189.615 27.7686 190.333 27.5574 190.902 27.1348C191.471 26.7178 191.756 26.0304 191.756 25.0725V22.6131H191.604C191.446 22.9286 191.215 23.2526 190.911 23.585C190.612 23.9175 190.215 24.1964 189.719 24.4218C189.229 24.6471 188.612 24.7598 187.868 24.7598C186.871 24.7598 185.966 24.526 185.155 24.0583C184.349 23.585 183.707 22.8807 183.228 21.9454C182.755 21.0045 182.518 19.8269 182.518 18.4126C182.518 16.9871 182.755 15.7841 183.228 14.8037C183.707 13.8177 184.352 13.0711 185.163 12.564C185.975 12.0513 186.879 11.7949 187.876 11.7949C188.637 11.7949 189.263 11.9245 189.753 12.1837C190.249 12.4373 190.643 12.7443 190.936 13.1049C191.229 13.4599 191.452 13.7952 191.604 14.1107H191.773V11.964H194.79V25.1571C194.79 26.2671 194.525 27.1855 193.995 27.9123C193.466 28.6392 192.742 29.1829 191.823 29.5435C190.905 29.9041 189.863 30.0844 188.696 30.0844ZM188.722 22.3596C189.37 22.3596 189.922 22.2018 190.378 21.8863C190.835 21.5707 191.181 21.1172 191.418 20.5255C191.654 19.9339 191.773 19.224 191.773 18.3957C191.773 17.5787 191.654 16.8631 191.418 16.249C191.187 15.6348 190.843 15.1587 190.387 14.8206C189.936 14.4769 189.381 14.3051 188.722 14.3051C188.04 14.3051 187.471 14.4826 187.014 14.8375C186.558 15.1925 186.214 15.6799 185.983 16.2997C185.752 16.9138 185.637 17.6125 185.637 18.3957C185.637 19.1902 185.752 19.886 185.983 20.4833C186.22 21.0749 186.566 21.5369 187.023 21.8694C187.485 22.1962 188.051 22.3596 188.722 22.3596Z" fill="#000714"/>
<path d="M173.12 25.2078C172.297 25.2078 171.556 25.0613 170.897 24.7683C170.243 24.4697 169.725 24.0302 169.342 23.4498C168.964 22.8695 168.775 22.1539 168.775 21.3031C168.775 20.5706 168.911 19.9649 169.181 19.486C169.452 19.007 169.821 18.6239 170.288 18.3365C170.756 18.0492 171.283 17.8323 171.869 17.6858C172.46 17.5336 173.072 17.4238 173.703 17.3561C174.463 17.2773 175.08 17.2068 175.554 17.1449C176.027 17.0772 176.371 16.9758 176.585 16.8406C176.805 16.6997 176.914 16.4828 176.914 16.1898V16.1391C176.914 15.5024 176.726 15.0094 176.348 14.66C175.971 14.3107 175.427 14.136 174.717 14.136C173.968 14.136 173.373 14.2994 172.934 14.6262C172.5 14.953 172.207 15.339 172.055 15.7841L169.198 15.3784C169.423 14.5896 169.795 13.9304 170.314 13.4007C170.832 12.8655 171.466 12.4654 172.215 12.2006C172.965 11.9301 173.793 11.7949 174.7 11.7949C175.325 11.7949 175.948 11.8682 176.568 12.0147C177.188 12.1612 177.754 12.4034 178.267 12.7415C178.779 13.0739 179.191 13.5275 179.501 14.1022C179.816 14.677 179.974 15.3953 179.974 16.2574V24.9458H177.033V23.1625H176.931C176.745 23.5231 176.483 23.8611 176.145 24.1767C175.813 24.4866 175.393 24.7373 174.886 24.9289C174.385 25.1148 173.796 25.2078 173.12 25.2078ZM173.914 22.9596C174.528 22.9596 175.061 22.8385 175.511 22.5962C175.962 22.3483 176.309 22.0215 176.551 21.6158C176.799 21.2101 176.923 20.7678 176.923 20.2889V18.7591C176.827 18.838 176.664 18.9113 176.433 18.9789C176.207 19.0465 175.954 19.1056 175.672 19.1564C175.39 19.2071 175.111 19.2521 174.835 19.2916C174.559 19.331 174.32 19.3648 174.117 19.393C173.66 19.455 173.252 19.5564 172.891 19.6973C172.531 19.8381 172.246 20.0353 172.038 20.2889C171.829 20.5368 171.725 20.858 171.725 21.2524C171.725 21.8158 171.931 22.2412 172.342 22.5286C172.753 22.8159 173.277 22.9596 173.914 22.9596Z" fill="#000714"/>
<path d="M160.18 24.9458V11.964H163.147V14.1277H163.282C163.519 13.3783 163.924 12.8007 164.499 12.3951C165.079 11.9837 165.741 11.7781 166.485 11.7781C166.654 11.7781 166.843 11.7865 167.051 11.8034C167.266 11.8147 167.443 11.8344 167.584 11.8626V14.677C167.454 14.6319 167.249 14.5925 166.967 14.5587C166.691 14.5192 166.423 14.4995 166.164 14.4995C165.606 14.4995 165.105 14.6207 164.66 14.8629C164.22 15.0996 163.874 15.4292 163.62 15.8518C163.366 16.2744 163.24 16.7618 163.24 17.3139V24.9458H160.18Z" fill="#000714"/>
<path d="M148.935 24.9458H143.069V7.63672H149.053C150.772 7.63672 152.248 7.98324 153.482 8.67628C154.721 9.36368 155.674 10.3525 156.339 11.6428C157.003 12.9331 157.336 14.477 157.336 16.2744C157.336 18.0774 157.001 19.6269 156.33 20.9228C155.665 22.2187 154.705 23.2132 153.448 23.9062C152.197 24.5993 150.693 24.9458 148.935 24.9458ZM146.205 22.2328H148.783C149.988 22.2328 150.994 22.0131 151.8 21.5736C152.606 21.1285 153.211 20.4664 153.617 19.5874C154.023 18.7028 154.226 17.5985 154.226 16.2744C154.226 14.9503 154.023 13.8515 153.617 12.9782C153.211 12.0992 152.611 11.4428 151.817 11.0089C151.028 10.5695 150.048 10.3497 148.876 10.3497H146.205V22.2328Z" fill="#000714"/>
<path d="M126.422 25.1995C125.239 25.1995 124.222 24.9854 123.371 24.5571C122.52 24.1289 121.864 23.5514 121.402 22.8245C120.945 22.0921 120.717 21.2666 120.717 20.3482C120.717 19.6552 120.858 19.041 121.14 18.5057C121.427 17.9704 121.822 17.4746 122.323 17.0182C122.83 16.5618 123.416 16.1083 124.081 15.6575L127.149 13.5699C127.6 13.2769 127.941 12.967 128.172 12.6402C128.408 12.3134 128.527 11.9303 128.527 11.4908C128.527 11.1189 128.369 10.7668 128.053 10.4343C127.743 10.1019 127.315 9.93569 126.769 9.93569C126.402 9.93569 126.078 10.023 125.797 10.1977C125.521 10.3667 125.304 10.5893 125.146 10.8654C124.994 11.1415 124.918 11.4345 124.918 11.7444C124.918 12.1219 125.022 12.505 125.23 12.8938C125.445 13.2826 125.721 13.6854 126.059 14.1024C126.402 14.5193 126.769 14.9616 127.157 15.4293L135.28 24.9459H131.967L125.222 17.2211C124.721 16.6351 124.236 16.0575 123.768 15.4885C123.306 14.9194 122.926 14.3278 122.627 13.7136C122.334 13.0938 122.188 12.4233 122.188 11.7021C122.188 10.8851 122.377 10.1554 122.754 9.51311C123.132 8.86514 123.658 8.35522 124.335 7.98335C125.016 7.61147 125.814 7.42554 126.726 7.42554C127.639 7.42554 128.422 7.60584 129.076 7.96645C129.73 8.32705 130.234 8.80598 130.589 9.40324C130.944 10.0005 131.121 10.6513 131.121 11.3556C131.121 12.1726 130.918 12.9051 130.513 13.553C130.107 14.1954 129.544 14.7785 128.822 15.3025L125.323 17.8634C124.749 18.2803 124.337 18.7029 124.09 19.1311C123.842 19.5537 123.718 19.9143 123.718 20.213C123.718 20.6694 123.833 21.0835 124.064 21.4554C124.295 21.8272 124.619 22.1259 125.036 22.3512C125.459 22.571 125.952 22.6809 126.515 22.6809C127.135 22.6809 127.746 22.5428 128.349 22.2667C128.952 21.985 129.501 21.585 129.997 21.0666C130.493 20.5482 130.887 19.9284 131.18 19.2072C131.473 18.4804 131.62 17.6746 131.62 16.79H134.248C134.248 17.8831 134.127 18.8353 133.885 19.6467C133.643 20.4524 133.33 21.1342 132.947 21.692C132.564 22.2442 132.158 22.6865 131.73 23.0189C131.595 23.1147 131.465 23.2105 131.341 23.3063C131.217 23.4021 131.088 23.4979 130.952 23.5936C130.344 24.1458 129.631 24.5515 128.814 24.8107C128.003 25.0699 127.205 25.1995 126.422 25.1995Z" fill="#000714"/>
<path d="M106.985 25.1993C105.684 25.1993 104.56 24.9289 103.613 24.388C102.672 23.8414 101.948 23.0695 101.441 22.0722C100.934 21.0693 100.68 19.8888 100.68 18.5309C100.68 17.1956 100.934 16.0236 101.441 15.015C101.954 14.0008 102.669 13.212 103.588 12.6485C104.506 12.0795 105.585 11.7949 106.825 11.7949C107.625 11.7949 108.38 11.9245 109.09 12.1837C109.805 12.4373 110.436 12.8317 110.983 13.3669C111.535 13.9022 111.969 14.584 112.284 15.4123C112.6 16.2349 112.758 17.2153 112.758 18.3534V19.2916H102.117V17.2294H109.825C109.819 16.6434 109.693 16.1222 109.445 15.6658C109.197 15.2038 108.85 14.8404 108.405 14.5755C107.966 14.3107 107.453 14.1783 106.867 14.1783C106.241 14.1783 105.692 14.3304 105.219 14.6347C104.745 14.9333 104.376 15.3277 104.112 15.8179C103.852 16.3025 103.72 16.835 103.714 17.4153V19.2155C103.714 19.9705 103.852 20.6185 104.128 21.1594C104.405 21.6947 104.791 22.106 105.286 22.3934C105.782 22.6751 106.363 22.8159 107.027 22.8159C107.473 22.8159 107.875 22.754 108.236 22.63C108.597 22.5004 108.909 22.3117 109.174 22.0637C109.439 21.8158 109.639 21.5087 109.774 21.1425L112.631 21.4637C112.451 22.2187 112.107 22.8779 111.6 23.4414C111.098 23.9992 110.456 24.433 109.673 24.7429C108.89 25.0472 107.994 25.1993 106.985 25.1993Z" fill="#000714"/>
<path d="M93.1648 25.1993C91.8689 25.1993 90.7561 24.9148 89.8264 24.3457C88.9023 23.7766 88.1896 22.9906 87.6881 21.9877C87.1923 20.9791 86.9443 19.8184 86.9443 18.5056C86.9443 17.1871 87.1979 16.0236 87.705 15.015C88.2121 14.0008 88.9277 13.212 89.8517 12.6485C90.7814 12.0795 91.8801 11.7949 93.1479 11.7949C94.2015 11.7949 95.134 11.9893 95.9454 12.3781C96.7624 12.7612 97.4132 13.305 97.8977 14.0093C98.3823 14.7079 98.6584 15.5249 98.726 16.4603H95.8017C95.6834 15.8348 95.4017 15.3136 94.9566 14.8967C94.5171 14.4741 93.9283 14.2628 93.1901 14.2628C92.5647 14.2628 92.0154 14.4319 91.5421 14.7699C91.0688 15.1024 90.6997 15.5813 90.4349 16.2067C90.1757 16.8321 90.0461 17.5815 90.0461 18.4549C90.0461 19.3395 90.1757 20.1001 90.4349 20.7368C90.6941 21.3679 91.0575 21.8553 91.5252 22.199C91.9985 22.537 92.5535 22.7061 93.1901 22.7061C93.6409 22.7061 94.0438 22.6216 94.3987 22.4525C94.7593 22.2779 95.0608 22.0271 95.3031 21.7003C95.5454 21.3735 95.7116 20.9763 95.8017 20.5086H98.726C98.6528 21.427 98.3823 22.2412 97.9147 22.9512C97.447 23.6555 96.8103 24.2077 96.0046 24.6077C95.1988 25.0021 94.2522 25.1993 93.1648 25.1993Z" fill="#000714"/>
<path d="M81.2962 24.9459V11.964H84.3557V24.9459H81.2962ZM82.8344 10.1216C82.3499 10.1216 81.9329 9.96099 81.5836 9.63982C81.2342 9.31302 81.0596 8.92143 81.0596 8.46503C81.0596 8.00301 81.2342 7.61141 81.5836 7.29025C81.9329 6.96345 82.3499 6.80005 82.8344 6.80005C83.3246 6.80005 83.7416 6.96345 84.0853 7.29025C84.4346 7.61141 84.6093 8.00301 84.6093 8.46503C84.6093 8.92143 84.4346 9.31302 84.0853 9.63982C83.7416 9.96099 83.3246 10.1216 82.8344 10.1216Z" fill="#000714"/>
<path d="M78.9002 11.9641V14.3306H71.2261V11.9641H78.9002ZM73.1446 24.9459V10.7386C73.1446 9.86524 73.3249 9.13839 73.6855 8.55804C74.0518 7.97769 74.542 7.54384 75.1561 7.25648C75.7703 6.96912 76.452 6.82544 77.2014 6.82544C77.7311 6.82544 78.2015 6.8677 78.6129 6.95222C79.0242 7.03673 79.3284 7.1128 79.5256 7.18041L78.9171 9.54689C78.7875 9.50745 78.6241 9.46801 78.4269 9.42856C78.2297 9.38349 78.01 9.36095 77.7677 9.36095C77.1986 9.36095 76.7957 9.499 76.5591 9.77508C76.3281 10.0455 76.2126 10.4343 76.2126 10.9414V24.9459H73.1446Z" fill="#000714"/>
<path d="M69.9285 11.9641V14.3306H62.2544V11.9641H69.9285ZM64.1729 24.9459V10.7386C64.1729 9.86524 64.3532 9.13839 64.7138 8.55804C65.0801 7.97769 65.5703 7.54384 66.1844 7.25648C66.7986 6.96912 67.4804 6.82544 68.2298 6.82544C68.7594 6.82544 69.2299 6.8677 69.6412 6.95222C70.0525 7.03673 70.3568 7.1128 70.554 7.18041L69.9454 9.54689C69.8159 9.50745 69.6525 9.46801 69.4552 9.42856C69.258 9.38349 69.0383 9.36095 68.796 9.36095C68.2269 9.36095 67.8241 9.499 67.5874 9.77509C67.3564 10.0455 67.2409 10.4343 67.2409 10.9414V24.9459H64.1729Z" fill="#000714"/>
<path d="M60.5243 16.2913C60.5243 18.1563 60.1749 19.7537 59.4763 21.0835C58.7832 22.4076 57.8366 23.4218 56.6365 24.1261C55.442 24.8304 54.0869 25.1825 52.5712 25.1825C51.0555 25.1825 49.6976 24.8304 48.4975 24.1261C47.303 23.4161 46.3564 22.3991 45.6577 21.075C44.9647 19.7453 44.6182 18.1507 44.6182 16.2913C44.6182 14.4263 44.9647 12.8318 45.6577 11.5077C46.3564 10.1779 47.303 9.16092 48.4975 8.45661C49.6976 7.7523 51.0555 7.40015 52.5712 7.40015C54.0869 7.40015 55.442 7.7523 56.6365 8.45661C57.8366 9.16092 58.7832 10.1779 59.4763 11.5077C60.1749 12.8318 60.5243 14.4263 60.5243 16.2913ZM57.3718 16.2913C57.3718 14.9785 57.1661 13.8713 56.7548 12.9698C56.3491 12.0627 55.7857 11.3781 55.0645 10.9161C54.3433 10.4484 53.5122 10.2146 52.5712 10.2146C51.6303 10.2146 50.7992 10.4484 50.078 10.9161C49.3568 11.3781 48.7905 12.0627 48.3792 12.9698C47.9735 13.8713 47.7706 14.9785 47.7706 16.2913C47.7706 17.6042 47.9735 18.7142 48.3792 19.6213C48.7905 20.5228 49.3568 21.2074 50.078 21.6751C50.7992 22.1371 51.6303 22.3681 52.5712 22.3681C53.5122 22.3681 54.3433 22.1371 55.0645 21.6751C55.7857 21.2074 56.3491 20.5228 56.7548 19.6213C57.1661 18.7142 57.3718 17.6042 57.3718 16.2913Z" fill="#000714"/>
<defs>
<linearGradient id="paint0_linear_1131_53" x1="22.7764" y1="15.0448" x2="24.4905" y2="15.0448" gradientUnits="userSpaceOnUse">
<stop stop-color="#0051E0"/>
<stop offset="1" stop-color="#467FFF"/>
</linearGradient>
<linearGradient id="paint1_linear_1131_53" x1="22.9385" y1="11.2831" x2="23.036" y2="11.2831" gradientUnits="userSpaceOnUse">
<stop stop-color="#0051E0"/>
<stop offset="1" stop-color="#467FFF"/>
</linearGradient>
<linearGradient id="paint2_linear_1131_53" x1="22.7764" y1="15.0448" x2="24.4905" y2="15.0448" gradientUnits="userSpaceOnUse">
<stop stop-color="#0051E0"/>
<stop offset="1" stop-color="#467FFF"/>
</linearGradient>
<linearGradient id="paint3_linear_1131_53" x1="22.9385" y1="11.2831" x2="23.036" y2="11.2831" gradientUnits="userSpaceOnUse">
<stop stop-color="#0051E0"/>
<stop offset="1" stop-color="#467FFF"/>
</linearGradient>
<linearGradient id="paint4_linear_1131_53" x1="254.76" y1="1039.58" x2="814.79" y2="524.842" gradientUnits="userSpaceOnUse">
<stop stop-color="#467FFF"/>
<stop offset="1" stop-color="#729EFF"/>
</linearGradient>
<linearGradient id="paint5_linear_1131_53" x1="660.569" y1="633.983" x2="1598.24" y2="2256.84" gradientUnits="userSpaceOnUse">
<stop stop-color="#467FFF"/>
<stop offset="1" stop-color="#729EFF"/>
</linearGradient>
<linearGradient id="paint6_linear_1131_53" x1="914.436" y1="1157.46" x2="3810.74" y2="3153.54" gradientUnits="userSpaceOnUse">
<stop stop-color="#467FFF"/>
<stop offset="0.18" stop-color="#5186FF"/>
<stop offset="0.69" stop-color="#6998FF"/>
<stop offset="1" stop-color="#729EFF"/>
</linearGradient>
<clipPath id="clip0_1131_53">
<rect width="34" height="34" fill="white"/>
</clipPath>
</defs>
</svg>
